{"asset":{"version":"2.0","generator":"VECTARY"},"nodes":[{"translation":[3.053114335423959e-18,0,0],"scale":[0.039675262421525734,0.060499180530023906,0.049764076065796886],"rotation":[-0.7071067811865475,0,0,0.7071067811865476],"name":"Object_0","mesh":0}],"materials":[{"pbrMetallicRoughness":{"baseColorFactor":[1,1,1,1],"baseColorTexture":{"index":0,"extensions":{"KHR_texture_transform":{"offset":[0,0],"scale":[1,1],"rotation":0}},"texCoord":0},"metallicFactor":0,"roughnessFactor":1},"name":"NikeShoe_01_MS_Cleaned_Positioned_Final_2","emissiveFactor":[0,0,0],"extensions":{},"alphaMode":"OPAQUE","doubleSided":true}],"textures":[{"sampler":0,"source":0}],"images":[{"uri":"NikeShoe_01_MS_Cleaned_Positioned_Final_2_baseColor.jpg","mimeType":"image/jpeg"}],"samplers":[{"wrapS":10497,"wrapT":10497}],"meshes":[{"primitives":[{"mode":4,"attributes":{"POSITION":1,"NORMAL":2,"TEXCOORD_0":3},"material":0,"indices":0}]}],"accessors":[{"bufferView":0,"byteOffset":0,"componentType":5125,"count":300000,"type":"SCALAR"},{"bufferView":1,"byteOffset":0,"componentType":5126,"count":51354,"max":[2.7191379070281982,1.1805380582809448,2.377434015274048],"min":[-2.8258790969848633,-0.8029599785804749,-0.03394399955868721],"type":"VEC3"},{"bufferView":2,"byteOffset":0,"componentType":5126,"count":51354,"type":"VEC3"},{"bufferView":3,"byteOffset":0,"componentType":5126,"count":51354,"type":"VEC2"}],"bufferViews":[{"buffer":0,"byteOffset":0,"byteLength":1200000,"target":34963},{"buffer":0,"byteOffset":1200000,"byteLength":616248,"target":34962},{"buffer":0,"byteOffset":1816248,"byteLength":616248,"target":34962},{"buffer":0,"byteOffset":2432496,"byteLength":410832,"target":34962}],"scene":0,"scenes":[{"nodes":[0],"name":"Project Name"}],"extensionsUsed":["KHR_texture_transform"],"buffers":[{"byteLength":2843328,"uri":"ProjectName.bin"}]}